<?xml version="1.0" encoding="UTF-8" standalone="no" ?>
<!DOCTYPE svg PUBLIC "-//W3C//DTD SVG 1.1//EN" "http://www.w3.org/Graphics/SVG/1.1/DTD/svg11.dtd">
<svg xmlns="http://www.w3.org/2000/svg" xmlns:xlink="http://www.w3.org/1999/xlink" version="1.1" width="500" height="500" viewBox="0 0 500 500" xml:space="preserve">
<desc>Created with Fabric.js 4.6.0</desc>
<defs>
</defs>
<g transform="matrix(1 0 0 1 250 250)" id="kM_QtDlSxW56B-ufnbL5c"  >
<path style="stroke: none; stroke-width: 1; stroke-dasharray: none; stroke-linecap: butt; stroke-dashoffset: 0; stroke-linejoin: miter; stroke-miterlimit: 4; fill: rgb(51,64,218); fill-rule: evenodd; opacity: 0.85;" vector-effect="non-scaling-stroke"  transform=" translate(-61.44, -60.93)" d="M 61.44 0.01 C 64.71 -0.13 67.28999999999999 1.01 69.89 2.6599999999999997 C 73.19 4.75 76.91 8.89 81.5 11.51 C 87.95 15.2 99.91 10.11 106.03 19.21 C 109.6 24.51 109.77 28.67 110.03 32.78 C 110.32000000000001 37.21 111.09 41.29 115.63 47.29 C 123.14 57.22 124.69999999999999 63.83 120.83 70.72 C 118.19 75.42 112.64 78.03 111.35 81 C 108.61999999999999 87.33 111.64 92.1 107.89999999999999 99.48 C 105.3 104.60000000000001 101.28999999999999 107.97 95.94999999999999 109.69 C 91.44999999999999 111.14 86.91999999999999 109.03999999999999 83.32 110.56 C 76.97999999999999 113.22 72.30999999999999 119.41 67.25999999999999 120.98 C 65.30999999999999 121.58 63.36999999999999 121.88000000000001 61.43999999999999 121.87 C 59.49999999999999 121.88000000000001 57.55999999999999 121.59 55.61999999999999 120.98 C 50.57999999999999 119.41000000000001 45.89999999999999 113.23 39.55999999999999 110.56 C 35.94999999999999 109.04 31.429999999999986 111.14 26.929999999999986 109.69 C 21.589999999999986 107.97 17.579999999999984 104.6 14.979999999999986 99.47999999999999 C 11.23 92.1 14.26 87.33 11.52 81 C 10.23 78.03 4.68 75.42 2.039999999999999 70.72 C -1.830000000000001 63.83 -0.2600000000000007 57.22 7.239999999999999 47.29 C 11.78 41.29 12.549999999999999 37.21 12.84 32.78 C 13.11 28.67 13.27 24.51 16.84 19.21 C 22.96 10.110000000000001 34.92 15.200000000000001 41.370000000000005 11.510000000000002 C 45.96000000000001 8.89 49.67 4.750000000000002 52.980000000000004 2.660000000000002 C 55.59 1.01 58.17 -0.13 61.44 0.01 L 61.44 0.01 z M 50.83 53.9 L 58.69 61.379999999999995 L 72.22 47.629999999999995 C 73.56 46.269999999999996 74.4 45.17999999999999 76.05 46.879999999999995 L 81.41 52.37 C 83.17 54.11 83.08 55.129999999999995 81.42 56.75 L 61.75 76.06 C 58.25 79.49000000000001 58.86 79.7 55.31 76.18 L 41.81 62.75 C 41.07 61.95 41.150000000000006 61.14 41.96 60.34 L 48.18 53.89 C 49.11 52.91 49.86 52.97 50.83 53.9 L 50.83 53.9 z M 61.26 27.57 C 80.21 27.57 95.56 42.93 95.56 61.87 C 95.56 80.82 80.2 96.16999999999999 61.260000000000005 96.16999999999999 C 42.31 96.16999999999999 26.960000000000008 80.80999999999999 26.960000000000008 61.86999999999999 C 26.96 42.92 42.32 27.57 61.26 27.57 L 61.26 27.57 z" stroke-linecap="round" />
</g>
</svg>